<?xml version="1.0" standalone="no"?>
<!DOCTYPE svg PUBLIC "-//W3C//DTD SVG 20010904//EN"
 "http://www.w3.org/TR/2001/REC-SVG-20010904/DTD/svg10.dtd">
<svg version="1.0" xmlns="http://www.w3.org/2000/svg"
 width="576.000000pt" height="720.000000pt" viewBox="0 0 576.000000 720.000000"
 preserveAspectRatio="xMidYMid meet">

<g transform="translate(0.000000,720.000000) scale(0.100000,-0.100000)"
fill="#000000" stroke="none">
<path d="M0 6393 c0 -443 2 -804 4 -802 5 5 107 334 191 619 86 289 118 374
228 605 75 158 167 369 167 382 0 1 -133 3 -295 3 l-295 0 0 -807z"/>
<path d="M941 7178 c-23 -60 -205 -496 -248 -598 -111 -256 -121 -338 -153
-1235 -19 -545 -33 -727 -61 -829 -21 -76 -92 -112 -123 -63 -11 18 -12 33 -4
77 6 33 9 162 7 320 -8 667 -7 687 71 994 32 125 330 1158 360 1249 54 162
-226 -428 -312 -658 -66 -177 -80 -229 -113 -420 -14 -82 -55 -278 -91 -435
-122 -536 -122 -534 -134 -1045 -14 -622 -9 -668 135 -1120 92 -289 158 -453
285 -710 154 -310 321 -571 525 -820 207 -252 426 -403 651 -450 180 -37 297
-13 659 137 175 73 191 77 216 52 l20 -20 -143 -110 c-260 -199 -370 -268
-560 -350 -116 -51 -298 -108 -374 -119 -200 -27 -400 117 -534 384 -51 102
-129 229 -230 376 -129 186 -431 626 -488 710 -109 161 -194 359 -258 601 -20
77 -38 141 -40 143 -2 2 -4 -376 -4 -841 l0 -845 69 -89 c83 -108 281 -334
442 -506 188 -200 313 -268 530 -288 143 -13 423 -30 487 -30 143 0 259 51
497 216 148 103 225 150 348 214 82 43 157 105 299 246 120 119 138 134 156
125 35 -18 32 -39 -15 -128 -114 -218 -168 -279 -405 -455 -255 -191 -419
-314 -508 -383 -163 -126 -403 -226 -710 -296 -135 -31 -158 -33 -320 -33
-148 0 -187 4 -255 22 -168 46 -308 138 -379 251 -15 24 -55 107 -88 185 -65
153 -108 244 -133 279 -14 19 -15 -21 -15 -431 l0 -452 690 0 690 0 119 60
c65 33 152 71 192 86 105 37 257 117 348 183 83 59 360 309 522 470 87 88 152
168 339 426 40 55 66 83 68 73 7 -36 -42 -199 -87 -294 -56 -118 -204 -340
-307 -464 -138 -166 -304 -309 -529 -456 l-120 -79 277 -3 276 -2 165 167 c90
93 192 200 226 238 166 187 296 445 352 698 11 53 14 57 41 57 43 0 103 -35
127 -73 15 -24 21 -51 21 -90 0 -64 -45 -411 -61 -472 -22 -80 -62 -147 -140
-231 -44 -47 -97 -111 -118 -143 -36 -53 -81 -134 -81 -146 0 -3 101 -5 225
-5 l225 0 16 37 c33 79 83 276 123 483 23 118 45 223 49 233 6 16 36 -9 175
-145 l168 -163 -1 -101 c0 -125 -14 -195 -54 -278 l-32 -66 197 0 197 0 13 56
14 55 70 -55 69 -56 648 0 648 0 0 1133 0 1132 -49 190 c-27 105 -106 377
-174 605 -271 899 -678 2331 -717 2520 -78 381 -116 1252 -63 1433 8 29 30 83
49 120 l34 68 -107 -3 -108 -3 -12 -55 c-93 -406 -182 -978 -235 -1504 -31
-315 -32 -326 -15 -378 9 -29 85 -170 168 -313 83 -143 177 -305 209 -360 32
-55 106 -183 166 -285 181 -311 241 -449 396 -915 129 -387 186 -588 296
-1035 115 -463 110 -437 81 -448 -38 -14 -98 -3 -114 22 -8 11 -99 341 -204
733 -104 392 -204 747 -221 790 -56 140 -108 218 -539 793 -121 161 -211 270
-286 345 -169 169 -206 253 -226 508 -17 218 -8 331 35 464 42 132 65 217 117
441 22 96 59 256 83 355 62 256 166 780 166 835 0 9 -38 12 -155 12 -152 0
-155 0 -159 -22 -8 -34 -44 -346 -57 -483 -30 -333 -117 -623 -313 -1043 -110
-234 -113 -288 -32 -581 72 -262 94 -323 167 -460 83 -157 80 -153 185 -237
195 -157 365 -348 649 -728 216 -291 241 -328 304 -454 89 -177 146 -335 327
-911 113 -359 112 -351 47 -351 -23 0 -37 7 -47 23 -8 12 -31 99 -51 192 -20
94 -57 230 -81 303 -41 126 -154 405 -161 398 -6 -6 60 -315 113 -531 62 -250
77 -361 50 -388 -22 -22 -65 -32 -77 -20 -6 6 -84 302 -174 658 -184 731 -183
728 -324 916 -165 218 -299 352 -551 551 -159 126 -243 240 -326 445 -49 121
-50 118 -30 -87 15 -158 33 -217 86 -296 53 -79 305 -322 435 -420 164 -125
233 -202 299 -333 52 -102 313 -775 400 -1032 38 -111 86 -378 86 -477 0 -85
-32 -119 -64 -69 -8 12 -42 108 -76 212 -195 607 -245 756 -271 813 -25 55
-109 200 -297 510 -97 161 -259 355 -504 605 -150 153 -206 188 -358 225 -47
12 -125 35 -175 52 -60 20 -124 34 -191 40 -180 16 -247 41 -445 165 -145 91
-172 114 -199 170 -31 64 -51 238 -54 460 -2 171 -5 212 -24 283 -40 149 -204
554 -350 867 -69 147 -132 335 -132 392 0 58 22 98 188 346 217 324 204 297
145 297 -47 -1 -49 -2 -83 -53 -19 -28 -88 -107 -152 -174 -157 -165 -197
-248 -198 -412 0 -74 20 -173 46 -222 21 -42 43 -210 45 -349 1 -69 -4 -285
-10 -480 -6 -195 -16 -490 -21 -655 -9 -285 -36 -691 -80 -1202 -32 -371 -26
-469 37 -652 30 -89 108 -258 146 -318 15 -24 24 -43 21 -43 -4 0 -36 14 -73
32 -95 46 -175 131 -234 244 -66 128 -104 250 -117 374 -22 208 -34 252 -251
915 -199 608 -206 631 -224 774 -20 156 -73 846 -86 1106 -16 344 12 718 76
1000 14 60 25 111 25 112 0 2 -33 3 -74 3 -62 0 -76 -3 -80 -17 -124 -399
-145 -568 -153 -1208 -5 -421 4 -832 28 -1200 31 -499 130 -963 304 -1429 79
-214 125 -317 270 -611 152 -307 194 -367 319 -454 86 -59 238 -126 334 -146
79 -17 107 -35 140 -91 15 -25 51 -83 80 -131 41 -65 51 -88 41 -94 -19 -11
-222 -67 -294 -80 -33 -6 -98 -9 -145 -7 -138 7 -189 44 -255 183 -60 127
-125 213 -285 380 -184 191 -238 266 -312 430 -43 96 -73 212 -93 360 -28 214
-49 296 -165 650 -157 478 -154 457 -140 998 31 1218 36 1332 76 1566 35 208
147 682 210 884 8 25 -15 21 -25 -5z m1129 -1140 l51 -97 -4 -888 c-3 -780 -6
-900 -21 -988 -21 -127 -47 -234 -85 -357 -43 -139 -47 -210 -21 -423 22 -191
60 -567 60 -600 0 -11 -3 -15 -9 -10 -11 13 -96 337 -113 435 -21 119 -16 432
10 640 12 96 26 240 32 320 16 213 29 897 30 1530 0 332 4 550 9 545 5 -6 32
-54 61 -107z m178 -453 c80 -333 97 -487 89 -818 -7 -286 -21 -402 -81 -637
-85 -335 -99 -474 -91 -890 7 -380 15 -468 49 -610 32 -133 55 -204 150 -469
42 -118 75 -218 74 -223 -5 -13 -121 167 -163 250 -82 166 -115 309 -146 632
-32 329 -35 557 -9 775 63 541 120 1071 131 1230 11 165 10 200 -10 420 -12
132 -30 303 -40 380 -17 132 -18 175 -1 144 4 -8 26 -90 48 -184z m226 -1171
c38 -94 41 -135 18 -244 -71 -332 -87 -717 -52 -1220 33 -467 56 -546 241
-831 106 -165 171 -283 198 -360 41 -121 140 -286 212 -356 60 -57 123 -83
244 -99 133 -17 149 -25 180 -91 27 -56 105 -127 151 -139 17 -5 50 6 112 37
l87 44 160 0 c174 0 220 -8 363 -66 95 -38 175 -85 277 -165 155 -120 195
-182 197 -302 2 -81 -20 -135 -62 -152 -25 -10 -36 -9 -83 13 -29 13 -84 52
-121 86 -71 63 -156 110 -241 131 -27 6 -117 16 -200 20 -155 9 -292 34 -358
66 -27 13 -90 78 -208 216 -94 109 -187 210 -208 223 -21 14 -64 30 -96 35
-131 21 -162 40 -387 240 -310 276 -297 258 -422 549 -122 281 -135 349 -177
917 -60 814 -55 893 85 1337 25 81 46 154 46 162 0 33 18 12 44 -51z m646
-583 c135 -62 246 -97 368 -116 238 -38 290 -67 535 -300 106 -100 249 -240
318 -311 110 -114 131 -141 176 -229 89 -173 197 -462 291 -775 68 -224 164
-588 160 -602 -6 -17 -71 122 -158 338 -46 115 -95 219 -123 261 -118 177
-353 332 -504 333 -94 0 -415 -64 -487 -98 -34 -16 -135 -85 -226 -153 -216
-163 -269 -184 -341 -136 -18 12 -44 40 -56 62 -27 48 -70 223 -79 320 -6 61
-3 77 15 113 31 60 73 104 128 134 51 28 277 88 408 109 177 28 546 9 632 -32
34 -16 111 -85 266 -238 119 -119 217 -216 217 -215 0 8 -159 344 -182 384
-117 208 -372 417 -620 510 -122 45 -219 61 -397 67 -219 7 -282 -3 -418 -67
-120 -57 -190 -117 -230 -199 -28 -55 -28 -58 -27 -246 1 -271 8 -292 214
-665 107 -193 155 -248 242 -275 103 -33 162 -9 348 140 132 106 234 143 354
129 74 -8 432 -128 546 -182 296 -142 471 -360 534 -665 20 -95 22 -350 3
-387 -23 -45 -54 -38 -172 41 -190 127 -314 272 -381 447 -16 40 -44 91 -62
113 -68 80 -198 122 -377 122 -137 0 -236 -25 -368 -93 -109 -56 -187 -75
-271 -65 -121 13 -168 50 -254 195 -30 52 -97 160 -147 240 -105 164 -157 265
-215 410 -22 56 -53 127 -69 158 -34 67 -77 186 -91 249 -13 55 -29 457 -32
793 -2 252 -2 256 22 298 50 89 190 146 335 136 55 -4 90 -14 175 -53z m1311
-3322 c39 -31 204 -113 251 -124 15 -4 39 -18 53 -31 31 -29 29 -42 -24 -123
-20 -31 -49 -90 -65 -131 -16 -41 -30 -77 -32 -79 -8 -9 -285 209 -366 287
-76 73 -168 179 -168 194 0 2 24 3 53 1 39 -3 72 4 132 25 90 33 103 31 166
-19z"/>
<path d="M1232 7113 c-51 -209 -57 -269 -57 -613 1 -420 26 -631 110 -925 44
-152 62 -274 75 -497 16 -284 35 -354 147 -554 160 -286 219 -463 242 -729 12
-130 40 -287 51 -280 4 2 5 309 2 682 -4 542 -1 742 12 998 25 487 46 987 45
1068 -1 99 -12 63 -34 -108 -26 -200 -32 -199 -55 5 -7 52 -20 154 -31 225
-40 261 -59 469 -59 642 l0 173 -75 0 c-55 0 -75 -3 -75 -13 0 -7 -11 -123
-24 -258 -47 -461 -46 -484 34 -769 99 -357 120 -487 120 -745 0 -209 14 -329
54 -468 32 -109 34 -182 6 -197 -24 -13 -77 -16 -108 -6 -27 9 -47 46 -56 104
-14 91 -36 392 -36 493 0 132 -12 257 -50 514 -58 396 -100 888 -100 1166 l0
179 -58 0 -58 0 -22 -87z m382 -90 c3 -54 11 -177 16 -273 14 -235 24 -327 65
-582 36 -221 75 -534 75 -600 0 -20 -4 -39 -9 -42 -16 -10 -38 66 -81 274 -22
113 -59 275 -80 360 -73 290 -77 427 -24 833 9 70 20 127 24 127 4 0 10 -44
14 -97z"/>
<path d="M1786 7184 c-10 -25 -7 -398 4 -414 5 -8 11 -12 13 -10 2 3 23 59 47
125 24 66 49 136 56 155 14 38 18 101 8 138 -6 20 -13 22 -64 22 -44 0 -59 -4
-64 -16z"/>
<path d="M2335 7108 c-96 -115 -129 -182 -161 -334 -14 -66 -32 -146 -40 -178
-9 -33 -15 -90 -15 -127 0 -62 8 -87 87 -283 48 -119 90 -214 92 -212 2 3 -2
48 -9 102 -8 65 -10 156 -6 268 12 304 59 524 163 759 l43 97 -38 0 c-35 0
-43 -6 -116 -92z"/>
<path d="M2626 7043 c-43 -87 -109 -212 -147 -278 -124 -216 -165 -373 -156
-597 5 -148 23 -201 69 -206 33 -4 68 13 68 33 0 8 -11 49 -25 90 -51 151 -31
286 63 414 140 193 243 404 316 649 l15 52 -62 0 -62 0 -79 -157z"/>
<path d="M2930 7133 c-25 -145 -73 -258 -177 -415 -133 -202 -181 -352 -168
-527 16 -218 42 -270 118 -230 34 18 37 28 37 122 0 169 37 317 108 427 19 30
70 92 112 138 112 119 154 203 215 430 l33 122 -133 0 -133 0 -12 -67z"/>
<path d="M3341 7181 c-6 -10 -26 -61 -45 -113 -52 -144 -80 -206 -197 -443
-123 -248 -154 -344 -165 -518 -6 -85 -4 -108 10 -135 19 -38 47 -54 84 -50
31 4 20 -23 138 343 102 318 153 432 275 613 76 113 179 294 179 316 0 3 -61
6 -135 6 -122 0 -135 -2 -144 -19z"/>
<path d="M3817 7193 c-3 -5 -37 -79 -76 -165 -39 -86 -100 -212 -135 -280 -55
-104 -75 -158 -130 -348 -118 -408 -166 -589 -166 -624 0 -36 31 -66 68 -66
30 0 85 -42 110 -85 42 -73 40 -72 52 -55 17 26 69 191 89 288 32 146 103 346
185 519 111 234 142 341 196 668 28 172 37 155 -84 155 -58 0 -107 -3 -109 -7z"/>
<path d="M4951 7146 c-28 -75 -44 -207 -37 -301 21 -254 117 -1053 162 -1342
30 -198 47 -263 124 -484 90 -256 91 -261 100 -544 5 -166 14 -277 25 -330 9
-44 53 -176 96 -294 98 -262 116 -318 173 -546 25 -99 72 -265 105 -370 l60
-190 0 138 1 137 -86 218 c-110 280 -149 391 -185 532 l-29 115 0 337 c0 185
3 339 8 341 6 4 145 -452 261 -858 l26 -90 3 180 c3 176 2 183 -32 325 -20 80
-51 213 -71 295 -44 184 -74 283 -175 585 -91 268 -113 354 -135 530 -20 157
-23 168 -97 435 l-62 220 -7 215 c-5 151 -15 269 -34 395 -22 143 -26 203 -22
293 l4 112 -78 0 -78 0 -20 -54z"/>
<path d="M5250 7196 c0 -3 51 -159 114 -348 173 -520 192 -611 186 -913 -7
-410 -5 -470 24 -635 69 -382 124 -626 155 -686 l30 -59 1 107 c0 92 -4 119
-29 195 -34 103 -71 309 -71 397 0 78 21 166 65 272 l35 84 0 364 c0 361 0
365 -26 452 -32 113 -66 189 -124 284 -84 135 -131 223 -191 355 l-58 130 -56
3 c-30 2 -55 1 -55 -2z"/>
<path d="M5544 7168 c4 -18 13 -68 21 -110 17 -96 58 -175 135 -259 l59 -64 1
233 0 232 -111 0 -111 0 6 -32z"/>
<path d="M2595 5686 c-62 -15 -131 -60 -151 -97 -20 -41 -18 -92 8 -124 19
-24 26 -26 61 -21 30 5 44 2 59 -10 10 -10 42 -92 75 -191 33 -103 65 -186 79
-202 13 -16 47 -39 76 -52 45 -20 69 -23 153 -23 55 0 141 4 190 9 70 6 104 4
153 -9 72 -18 162 -55 162 -66 0 -4 -43 -10 -96 -14 -53 -4 -151 -14 -218 -22
-141 -19 -241 -14 -338 16 -100 31 -105 38 -133 166 -13 61 -31 127 -40 145
-17 34 -83 109 -96 109 -3 0 9 -37 27 -82 33 -82 64 -227 64 -297 0 -21 12
-60 26 -89 81 -162 362 -262 427 -152 31 51 101 88 199 105 24 3 49 17 66 36
29 31 29 31 99 22 74 -9 123 -2 142 21 17 21 -12 73 -52 94 -59 31 -155 142
-199 229 -32 64 -62 103 -139 182 -55 56 -126 143 -163 199 -83 126 -96 132
-269 131 -67 0 -144 -6 -172 -13z m561 -530 c-7 -37 -48 -76 -80 -76 l-23 0
19 73 c29 111 26 106 60 68 24 -27 29 -39 24 -65z"/>
</g>
</svg>
