<?xml version="1.0" standalone="no"?>
<!DOCTYPE svg PUBLIC "-//W3C//DTD SVG 20010904//EN"
 "http://www.w3.org/TR/2001/REC-SVG-20010904/DTD/svg10.dtd">
<svg version="1.0" xmlns="http://www.w3.org/2000/svg"
 width="1024.000000pt" height="1024.000000pt" viewBox="0 0 1024.000000 1024.000000"
 preserveAspectRatio="xMidYMid meet">

<g transform="translate(0.000000,1024.000000) scale(0.100000,-0.100000)"
fill="#000000" stroke="none">
<path d="M3425 7825 c-245 -54 -417 -218 -491 -470 -27 -92 -25 -250 4 -345
67 -216 227 -362 463 -422 70 -17 102 -20 199 -15 356 16 591 243 616 595 18
237 -131 494 -347 601 -135 66 -302 88 -444 56z m251 -300 c69 -20 127 -73
164 -149 29 -58 32 -73 32 -158 0 -161 -53 -263 -166 -318 -62 -31 -70 -32
-158 -28 -105 5 -138 18 -198 78 -52 52 -77 104 -92 189 -23 135 15 252 108
327 83 69 202 91 310 59z"/>
<path d="M4978 7824 c-76 -18 -162 -63 -220 -113 -25 -23 -49 -41 -52 -41 -3
0 -6 34 -6 75 l0 75 -176 0 -176 0 6 -31 c3 -17 6 -380 6 -805 l0 -774 170 0
170 0 0 260 c0 143 1 260 3 260 2 0 27 -22 56 -49 93 -86 187 -120 331 -121
146 0 270 48 380 147 47 43 70 74 105 146 64 131 80 198 80 347 0 146 -16 215
-74 335 -55 112 -128 184 -246 240 -132 64 -237 79 -357 49z m136 -328 c63
-31 119 -89 149 -155 30 -65 29 -203 -2 -282 -26 -68 -80 -132 -135 -162 -56
-30 -202 -32 -260 -3 -53 26 -100 76 -134 139 -25 48 -27 60 -27 172 0 118 1
121 35 184 35 66 76 101 147 127 58 22 160 13 227 -20z"/>
<path d="M6370 6066 c-25 -7 -65 -23 -89 -35 -48 -25 -126 -100 -136 -131 -13
-42 -25 -17 -25 55 l0 75 -160 0 -160 0 0 -590 0 -590 159 0 159 0 5 338 c3
216 8 350 16 374 21 68 72 131 130 162 70 37 175 47 247 22 26 -9 49 -15 50
-13 2 1 4 79 5 172 l1 170 -79 2 c-43 1 -98 -4 -123 -11z"/>
<path d="M4955 6061 c-241 -31 -438 -195 -511 -425 -113 -360 83 -724 432
-802 100 -22 271 -15 364 14 211 68 376 254 417 472 29 158 0 341 -74 470 -68
116 -207 217 -348 254 -75 19 -202 27 -280 17z m211 -319 c63 -32 97 -65 129
-124 25 -45 30 -67 33 -144 5 -114 -13 -184 -67 -252 -71 -89 -193 -123 -317
-87 -81 23 -156 98 -180 180 -23 82 -21 206 5 275 27 72 92 136 163 162 69 24
176 20 234 -10z"/>
<path d="M3635 6041 c-83 -24 -120 -45 -183 -105 l-55 -51 5 73 5 72 -170 0
-170 0 6 -322 c4 -178 7 -520 7 -760 l0 -438 165 0 165 0 0 240 0 240 53 -43
c197 -161 511 -135 683 56 99 111 147 251 148 437 0 134 -18 218 -71 327 -108
222 -361 340 -588 274z m160 -292 c110 -48 161 -122 172 -247 19 -226 -95
-381 -282 -384 -120 -2 -222 75 -257 195 -17 57 -16 231 1 289 32 111 128 171
261 164 41 -2 89 -10 105 -17z"/>
<path d="M3100 4290 l0 -150 -85 0 -85 0 0 -102 c0 -57 -3 -120 -6 -140 l-7
-38 91 0 91 0 3 -322 c3 -280 6 -330 22 -373 38 -107 105 -167 229 -207 91
-30 356 -29 405 1 10 6 11 38 6 143 l-7 135 -41 -9 c-23 -5 -73 -8 -112 -6
-60 3 -77 8 -109 32 -69 53 -75 78 -75 359 l0 247 170 0 170 0 0 140 0 140
-170 0 -170 0 0 150 0 150 -160 0 -160 0 0 -150z"/>
<path d="M5782 4158 c-89 -13 -180 -71 -240 -153 l-21 -30 -1 83 0 82 -160 0
-160 0 0 -590 0 -590 160 0 160 0 0 338 c0 364 5 409 54 482 31 48 80 78 149
92 47 10 61 9 101 -6 104 -40 116 -100 116 -584 l0 -322 160 2 160 3 0 430 c1
449 -1 477 -45 568 -67 142 -245 222 -433 195z"/>
<path d="M6798 4136 c-175 -52 -308 -188 -375 -385 -34 -97 -38 -261 -9 -356
51 -169 161 -302 313 -379 238 -119 546 -81 717 90 31 31 56 60 56 65 0 5 -33
31 -72 59 -40 27 -85 60 -100 71 l-27 22 -47 -42 c-81 -71 -205 -97 -311 -66
-87 26 -185 133 -207 228 l-6 27 399 0 400 0 7 37 c9 48 -10 194 -36 267 -10
31 -34 84 -52 118 -113 214 -396 319 -650 244z m276 -231 c73 -31 119 -92 132
-174 l7 -41 -242 0 -241 0 0 26 c0 41 49 132 86 161 67 51 175 62 258 28z"/>
<path d="M3920 3728 c0 -451 5 -505 56 -599 35 -64 101 -124 172 -157 47 -21
75 -27 158 -30 164 -7 269 37 338 140 l36 53 0 -88 0 -87 165 0 165 0 0 463
c0 254 -3 519 -7 590 l-6 127 -159 0 -159 0 3 -347 c3 -307 1 -355 -14 -404
-21 -66 -84 -143 -131 -158 -40 -13 -124 -16 -158 -6 -43 13 -91 57 -113 104
-20 44 -21 63 -24 429 l-3 382 -160 0 -159 0 0 -412z"/>
<path d="M3110 2285 l0 -175 2165 0 2165 1 0 174 0 175 -2165 0 -2165 0 0
-175z"/>
</g>
</svg>
