<svg xmlns="http://www.w3.org/2000/svg" xmlns:xlink="http://www.w3.org/1999/xlink" version="1.1" id="Layer_1" x="0px" y="0px" viewBox="0 0 253.2 291.36" style="enable-background:new 0 0 253.2 291.36;" xml:space="preserve" width="253.2"  height="291.36" >
<style type="text/css">
	.st0{fill:#fff;}
	.st1{fill:#fff;}
	.st2{fill:#fff;}
	.st3{fill:#fff;}
	.st4{fill:#fff;}
	.st5{fill:#fff;}
</style>
<g>
	<g>
		<path class="st0" d="M61.38,180.31c-5.83,0-11.49,0-17.3,0c0-0.52,0-0.98,0-1.45c0-14.07,0.01-28.13-0.02-42.2    c0-1.35-0.12-2.72-0.4-4.04c-0.83-3.98-3.23-6.22-6.98-6.68c-3.97-0.49-7.49,1.38-9.18,4.9c-1.12,2.32-1.37,4.81-1.37,7.35    c0,13.55,0,27.1,0,40.64c0,0.47,0,0.94,0,1.46c-5.78,0-11.43,0-17.16,0c0-23.01,0-45.97,0-69c5.7,0,11.35,0,17.11,0    c0,2.47,0,4.92,0,7.7c4.29-6.21,10.01-8.84,17.19-8.33c7.22,0.52,12.45,4.01,15.5,10.44c1.22-1.65,2.27-3.48,3.7-4.93    c4.28-4.34,9.68-5.83,15.64-5.54c2.86,0.14,5.61,0.78,8.15,2.15c5.26,2.83,8.11,7.46,9.34,13.12c0.51,2.36,0.77,4.82,0.78,7.24    c0.07,15.23,0.03,30.45,0.03,45.68c0,0.47,0,0.94,0,1.47c-5.74,0-11.35,0-17.15,0c0-0.53,0-1.03,0-1.53    c0-14.23,0.01-28.45-0.02-42.68c0-1.38-0.16-2.8-0.5-4.14c-0.92-3.67-3.47-5.75-7.15-6.02c-4.12-0.3-7.58,1.55-8.95,5.21    c-0.74,1.97-1.2,4.18-1.22,6.28c-0.11,13.79-0.05,27.57-0.05,41.36C61.38,179.26,61.38,179.73,61.38,180.31z"/>
		<path class="st0" d="M85.28,214.47c-0.14-2.6-0.08-5.05-0.46-7.43c-0.51-3.14-2.54-5.08-5.69-5.72c-2.06-0.42-4.13-0.41-6.16,0.15    c-2.78,0.76-4.61,2.97-4.9,5.86c-0.06,0.63-0.12,1.26-0.18,1.93c-5.81,0-11.51,0-17.42,0c0.06-1.14,0.04-2.28,0.19-3.4    c1.47-10.61,8.67-17.77,19.27-19.31c5.61-0.81,11.15-0.65,16.56,1.18c8.66,2.93,13.51,9.14,15.13,17.98    c0.38,2.07,0.49,4.21,0.5,6.31c0.04,14.15,0.02,28.29,0.02,42.44c0,0.48,0,0.95,0,1.52c-5.35,0-10.64,0-16.01,0    c0-2.13,0-4.23,0-6.63c-0.68,0.79-1.15,1.39-1.68,1.95c-2.93,3.09-6.6,4.77-10.77,5.19c-5.88,0.6-11.48-0.39-16.47-3.76    c-4.88-3.28-7.51-7.97-8.17-13.75c-0.73-6.39,0.55-12.26,4.99-17.14c3.71-4.07,8.46-6.33,13.84-6.91    c4.35-0.47,8.76-0.34,13.15-0.46C82.34,214.44,83.66,214.47,85.28,214.47z M85.74,228.1c-3.86,0-7.58-0.1-11.28,0.05    c-1.43,0.06-2.92,0.52-4.25,1.1c-2.77,1.22-3.85,3.57-3.76,6.5c0.09,2.82,1.37,4.96,4.07,5.91c3.9,1.37,7.68,0.95,10.96-1.66    C85.28,236.98,85.82,232.7,85.74,228.1z"/>
		<path class="st0" d="M123.76,104.7c-5.39,0-10.65,0-16.02,0c0-2.1,0-4.16,0-6.4c-0.27,0.18-0.42,0.24-0.49,0.34    c-2.9,3.86-6.86,5.95-11.56,6.54c-6.32,0.79-12.26-0.38-17.5-4.16c-4.81-3.47-7.16-8.39-7.63-14.19    c-0.48-5.87,0.81-11.29,4.75-15.85c3.49-4.04,8.02-6.37,13.21-7.13c3.49-0.51,7.07-0.45,10.62-0.56c2.5-0.08,5.01-0.02,7.87-0.02    c-0.24-2.84-0.25-5.56-0.75-8.19c-0.52-2.7-2.46-4.46-5.15-4.89c-2.01-0.32-4.15-0.34-6.15-0.01c-3.18,0.53-5.07,3.01-5.29,6.25    c-0.03,0.51-0.07,1.02-0.11,1.56c-5.82,0-11.52,0-17.58,0c0.28-2.09,0.38-4.16,0.86-6.13c1.95-8.01,6.99-13.23,14.83-15.61    c7.12-2.16,14.29-2.05,21.29,0.52c8.14,2.99,12.71,9.07,14.27,17.48c0.38,2.07,0.52,4.2,0.53,6.31    c0.04,14.23,0.02,28.45,0.02,42.68C123.76,103.7,123.76,104.17,123.76,104.7z M107.35,76.61c-4.24,0.13-8.35,0.02-12.41,0.46    c-3.89,0.42-6.1,2.3-6.82,5.8c-0.47,2.31,0.61,5.65,2.42,6.79c4.97,3.16,12.41,1.17,15.2-4.07    C107.2,82.86,107.47,79.92,107.35,76.61z"/>
		<path class="st0" d="M157.29,150.87c-11.95,0-23.76,0-35.74,0c0.16,3.31-0.39,6.54,0.54,9.71c0.85,2.9,2.82,4.8,5.77,5.27    c2.01,0.32,4.16,0.34,6.17,0c3.74-0.62,5.99-3.61,6.23-7.74c0.04-0.71,0.01-1.42,0.01-2.2c5.65,0,11.14,0,16.75,0    c0.09,3.5-0.36,6.91-1.53,10.2c-2.24,6.29-6.53,10.67-12.78,12.92c-7.53,2.71-15.2,2.87-22.76,0.14    c-8.93-3.23-13.54-9.98-14.9-19.15c-0.25-1.73-0.28-3.5-0.29-5.25c-0.02-6.95-0.25-13.92,0.08-20.85    c0.6-12.89,8.67-21.56,21.43-23.13c5.05-0.62,10.06-0.42,14.91,1.23c8.88,3.02,13.98,9.31,15.6,18.46    c0.37,2.11,0.46,4.29,0.5,6.43C157.34,141.49,157.29,146.09,157.29,150.87z M140.45,137.78c0.05-4.21,0.29-8.42-3.79-11.09    c-3.18-2.08-8.87-1.95-11.82,0.29c-3.67,2.78-3.34,6.82-3.24,10.8C127.94,137.78,134.14,137.78,140.45,137.78z"/>
		<path class="st0" d="M9.07,104.68c1.28-2.65,2.54-5.27,3.8-7.88c4.12-8.55,8.23-17.11,12.39-25.65c0.36-0.73,0.35-1.28,0.01-1.99    C20.04,58.4,14.84,47.62,9.64,36.84c-0.19-0.39-0.35-0.79-0.59-1.35c0.64,0,1.14,0,1.64,0c4.75,0,9.51,0.02,14.26-0.02    c0.88-0.01,1.34,0.24,1.72,1.05c3.97,8.32,7.99,16.61,12,24.91c0.17,0.34,0.37,0.67,0.66,1.2c0.46-0.93,0.82-1.66,1.18-2.4    c3.85-7.97,7.7-15.95,11.58-23.91c0.18-0.37,0.71-0.79,1.09-0.79c5.31-0.05,10.63-0.03,15.94-0.03c0.11,0,0.21,0.05,0.43,0.1    c-1.45,3.02-2.88,5.99-4.32,8.96c-3.99,8.26-7.96,16.53-11.99,24.78c-0.39,0.79-0.13,1.34,0.19,2    c5.2,10.74,10.39,21.48,15.58,32.22c0.17,0.35,0.31,0.72,0.52,1.19c-0.42,0.03-0.76,0.07-1.09,0.07c-4.95,0-9.91-0.02-14.86,0.02    c-0.83,0.01-1.26-0.25-1.62-1.01c-4.01-8.38-8.07-16.75-12.11-25.12c-0.13-0.28-0.29-0.54-0.55-1.03    c-1.15,2.35-2.22,4.51-3.27,6.68c-3.15,6.54-6.29,13.09-9.47,19.61c-0.18,0.37-0.72,0.81-1.1,0.82    c-5.31,0.05-10.63,0.03-15.94,0.02C9.4,104.82,9.3,104.75,9.07,104.68z"/>
		<path class="st1" d="M8.97,256c0-23.03,0-45.99,0-69.06c5.72,0,11.45,0,17.31,0c0,2.66,0,5.34,0,8.03c2.02-3.34,4.53-6,8.14-7.51    c3.57-1.49,7.27-1.61,11.14-1.13c0,2.84,0,5.64,0,8.43c0,2.79,0,5.59,0,8.56c-0.49,0-0.91,0-1.33,0c-2.6,0.03-5.22-0.16-7.78,0.13    c-5.38,0.61-8.84,4.11-9.8,9.63c-0.2,1.13-0.29,2.3-0.29,3.45c-0.02,12.67-0.01,25.33-0.01,38c0,0.47,0,0.94,0,1.48    C20.52,256,14.82,256,8.97,256z"/>
		<path class="st2" d="M118.39,206.8c-0.22,0.06-0.3,0.1-0.38,0.1c-3.94,0.2-3.93,0.2-4.83-3.61c-0.92-3.87-1.87-7.74-2.84-11.73    c1.35,0,2.6,0,4.01,0c0.67,3.27,1.35,6.62,2.1,10.33c0.32-1.19,0.56-2.05,0.78-2.92c0.55-2.2,1.13-4.4,1.62-6.62    c0.15-0.68,0.42-0.99,1.11-0.9c0.08,0.01,0.16,0,0.24,0c1.91-0.02,1.91-0.02,2.37,1.87c0.65,2.69,1.31,5.38,2.22,8.07    c0.52-2.35,1.05-4.69,1.57-7.04c0.64-2.93,0.63-2.93,3.67-2.89c0.24,0,0.47,0.02,0.9,0.04c-1.3,5.15-2.58,10.22-3.87,15.35    c-1.44,0-2.82,0-4.28,0c-0.7-2.8-1.41-5.61-2.12-8.41c-0.06,0-0.13,0-0.19,0C119.78,201.21,119.08,204,118.39,206.8z"/>
		<path class="st2" d="M208.24,198.44c-0.7,2.8-1.41,5.59-2.13,8.47c-1.29,0-2.53,0.03-3.76-0.02c-0.23-0.01-0.59-0.3-0.65-0.52    c-1.17-4.76-2.31-9.53-3.45-14.3c-0.03-0.14,0-0.3,0-0.53c1.28,0,2.5,0,3.85,0c0.67,3.31,1.35,6.65,2.03,9.98    c0.06,0.01,0.12,0.02,0.18,0.03c0.3-1.18,0.61-2.36,0.91-3.54c0.47-1.86,0.97-3.71,1.36-5.58c0.17-0.81,0.53-1.07,1.3-0.98    c0.32,0.04,0.65,0.05,0.96,0c0.87-0.14,1.16,0.28,1.34,1.08c0.66,2.95,1.4,5.89,2.35,8.87c0.29-1.23,0.58-2.47,0.86-3.7    c0.4-1.79,0.82-3.58,1.17-5.38c0.12-0.63,0.34-0.91,1-0.88c0.99,0.04,1.99,0.01,3.14,0.01c-0.41,1.61-0.78,3.1-1.16,4.6    c-0.83,3.29-1.67,6.57-2.46,9.87c-0.18,0.75-0.47,1.03-1.28,1.02c-3.26-0.01-3.25,0.02-4.03-3.14c-0.44-1.8-0.89-3.59-1.34-5.39    C208.37,198.42,208.31,198.43,208.24,198.44z"/>
		<path class="st3" d="M165.51,191.45c1.14,0,2.18-0.06,3.2,0.03c0.35,0.03,0.77,0.38,0.96,0.7c1.5,2.5,2.95,5.02,4.42,7.54    c0.09,0.16,0.2,0.31,0.48,0.72c0-3.14,0-5.97,0-8.9c1.33,0,2.54,0,3.8,0c0,5.11,0,10.17,0,15.37c-1.12,0-2.2,0.07-3.25-0.04    c-0.36-0.04-0.78-0.47-1-0.83c-1.59-2.61-3.14-5.24-4.83-8.08c0,3.07,0,5.91,0,8.85c-1.3,0-2.5,0-3.77,0    C165.51,201.73,165.51,196.67,165.51,191.45z M174.68,200.52l-0.04,0.08l0.06,0.01L174.68,200.52z"/>
		<path class="st0" d="M163.12,212.48c3.61-0.23,3.62-0.23,5.39,2.76c1.17,1.98,2.33,3.97,3.62,6.17c0-3.08,0-5.95,0-8.9    c1.32,0,2.53,0,3.8,0c0,5.07,0,10.12,0,15.29c-1.14,0-2.25,0.06-3.34-0.04c-0.33-0.03-0.71-0.45-0.91-0.78    c-1.67-2.75-3.3-5.53-4.95-8.31c0,3.01,0,6.01,0,9.07c-1.24,0-2.41,0-3.61,0C163.12,222.62,163.12,217.55,163.12,212.48z"/>
		<path class="st2" d="M188.9,207.16c-4.54-0.01-8.1-3.61-8.01-8.08c0.09-4.49,3.61-7.9,8.1-7.86c4.58,0.04,8.07,3.46,8.07,7.89    C197.06,203.71,193.55,207.17,188.9,207.16z M193.05,199.21c0.03-2.46-1.76-4.46-4.01-4.49c-2.28-0.03-4.16,1.93-4.17,4.36    c-0.01,2.48,1.75,4.49,3.98,4.54C191.21,203.68,193.02,201.78,193.05,199.21z"/>
		<path class="st3" d="M154.41,200.75c0,2.05,0,4.03,0,6.09c-1.28,0-2.46,0-3.74,0c0-5.08,0-10.16,0-15.32c1.19,0,2.37,0,3.71,0    c0,1.93,0,3.86,0,5.73c1.12,0.36,1.69,0.02,2.11-0.91c0.63-1.37,1.45-2.67,2.11-4.03c0.33-0.68,0.77-0.92,1.5-0.88    c0.94,0.05,1.89,0.01,3.11,0.01c-1.16,2.07-2.12,3.98-3.28,5.76c-0.78,1.2-0.79,2.13-0.03,3.34c1.24,1.98,2.28,4.09,3.53,6.36    c-1.43,0-2.65,0.05-3.86-0.03c-0.29-0.02-0.64-0.41-0.81-0.71c-0.81-1.47-1.55-2.97-2.33-4.45    C155.87,200.64,155.86,200.65,154.41,200.75z"/>
		<path class="st3" d="M136.66,227.81c-0.5,0-0.81,0-1.13,0c-2.67,0.01-2.65,0-3.56-2.43c-0.12-0.33-0.59-0.6-0.96-0.75    c-0.31-0.12-0.71-0.03-1.07-0.03c-2.73,0-2.72,0-3.62,2.52c-0.1,0.27-0.42,0.63-0.66,0.65c-1.1,0.07-2.21,0.03-3.47,0.03    c0.62-1.8,1.19-3.45,1.75-5.1c1.05-3.09,2.12-6.18,3.13-9.29c0.23-0.7,0.51-1.01,1.31-1.01c3.05,0.01,3.05-0.02,4.03,2.9    C133.8,219.42,135.21,223.52,136.66,227.81z M129.42,216.26c-0.51,1.87-0.96,3.5-1.43,5.22c1,0,1.88,0,2.85,0    C130.38,219.75,129.93,218.12,129.42,216.26z"/>
		<path class="st4" d="M133.14,191.51c3.2,0,6.3,0,9.48,0c0,1.07,0,2.08,0,3.23c-1.87,0-3.72,0-5.64,0c0,0.95,0,1.76,0,2.71    c1.28,0,2.51,0.03,3.73-0.01c0.66-0.02,0.95,0.19,0.92,0.89c-0.04,0.75-0.01,1.5-0.01,2.4c-1.59,0-3.08,0-4.64,0    c0,1,0,1.86,0,2.84c1.98,0,3.96,0,6,0c0,1.14,0,2.16,0,3.26c-3.3,0-6.54,0-9.85,0C133.14,201.73,133.14,196.68,133.14,191.51z"/>
		<path class="st4" d="M154.23,215.73c0,0.93,0,1.71,0,2.64c1.49,0,2.98,0,4.64,0c0,1,0.06,1.87-0.04,2.73    c-0.03,0.23-0.49,0.58-0.76,0.6c-1.23,0.07-2.47,0.03-3.8,0.03c0,0.91,0,1.76,0,2.74c1.98,0,3.95,0,6.01,0c0,1.14,0,2.15,0,3.26    c-3.24,0-6.5,0-9.85,0c0-5,0-10.05,0-15.19c3.09,0,6.22,0,9.62,0c0,0.89,0.04,1.86-0.04,2.81c-0.01,0.15-0.55,0.37-0.85,0.38    C157.57,215.75,155.97,215.73,154.23,215.73z"/>
		<path class="st1" d="M177.76,212.49c4.41,0,8.67,0,13.03,0c0,1.01,0,2.02,0,3.18c-1.42,0-2.88,0-4.45,0c0,4.07,0,8.01,0,12.04    c-1.32,0-2.53,0-3.85,0c0-3.93,0-7.86,0-11.98c-1.33,0-2.55-0.03-3.77,0.01c-0.72,0.03-1.02-0.22-0.97-0.96    C177.8,214.04,177.76,213.29,177.76,212.49z"/>
		<path class="st0" d="M118.49,227.75c-1.4,0-2.58,0-3.85,0c0-4,0-7.93,0-12.01c-1.53,0-2.98,0-4.53,0c0-1.15,0-2.16,0-3.24    c4.28,0,8.52,0,12.85,0c0,1.01,0,1.99,0,3.12c-1.45,0-2.9,0-4.47,0C118.49,219.73,118.49,223.7,118.49,227.75z"/>
		<path class="st5" d="M138.41,212.48c1.24,0,2.42,0,3.72,0c0,3.98,0,7.91,0,11.96c2.1,0,4.08,0,6.16,0c0,1.15,0,2.2,0,3.31    c-3.27,0-6.53,0-9.88,0C138.41,222.71,138.41,217.66,138.41,212.48z"/>
	</g>
</g>
</svg>